<svg width="21" height="21" viewBox="0 0 21 21" fill="none" xmlns="http://www.w3.org/2000/svg">
<path d="M1.88672 1.88672H19.1133V19.1133H1.88672V1.88672Z" stroke="white" stroke-width="1.28" stroke-miterlimit="10"/>
<path d="M1.88672 16.7672L7.36641 11.2875L12.0668 15.9797L15.2004 12.8461L19.1133 16.7672" stroke="white" stroke-width="1.28" stroke-miterlimit="10"/>
<path d="M10.5 7.3664C10.5 7.78194 10.6651 8.18046 10.9589 8.4743C11.2527 8.76813 11.6513 8.9332 12.0668 8.9332C12.4823 8.9332 12.8809 8.76813 13.1747 8.4743C13.4685 8.18046 13.6336 7.78194 13.6336 7.3664C13.6336 6.95086 13.4685 6.55234 13.1747 6.25851C12.8809 5.96468 12.4823 5.79961 12.0668 5.79961C11.6513 5.79961 11.2527 5.96468 10.9589 6.25851C10.6651 6.55234 10.5 6.95086 10.5 7.3664Z" stroke="white" stroke-width="1.28" stroke-miterlimit="10"/>
</svg>
