<svg width="19" height="19" viewBox="0 0 19 19" fill="none" xmlns="http://www.w3.org/2000/svg">
<path d="M0.895549 8.65793C0.982362 9.85116 1.63499 10.8109 2.44602 10.9438C3.04844 11.0426 3.66697 11.1274 4.29758 11.1274C4.92821 11.1274 5.54672 11.0426 6.14914 10.9438C6.96018 10.8109 7.6128 9.85116 7.69962 8.65793C7.7637 7.77707 7.81782 6.87272 7.81782 5.95074C7.81782 5.02875 7.7637 4.12441 7.69962 3.24355C7.6128 2.05031 6.96018 1.0906 6.14914 0.957658C5.54672 0.858916 4.92821 0.774109 4.29758 0.774109C3.66697 0.774109 3.04844 0.858916 2.44602 0.957658C1.63499 1.0906 0.982362 2.05031 0.895548 3.24355C0.831461 4.12441 0.777344 5.02875 0.777344 5.95074C0.777344 6.87272 0.831461 7.77707 0.895549 8.65793Z" stroke="white" stroke-width="1.281" stroke-linecap="round" stroke-linejoin="round"/>
<path d="M18.1351 10.3991C18.0481 9.20666 17.394 8.24757 16.5812 8.1147C15.9774 8.01602 15.3575 7.93127 14.7255 7.93127C14.0935 7.93127 13.4735 8.01602 12.8698 8.1147C12.0569 8.24757 11.4029 9.20666 11.3159 10.3991C11.2516 11.2794 11.1974 12.1832 11.1974 13.1046C11.1974 14.026 11.2516 14.9297 11.3159 15.81C11.4029 17.0024 12.0569 17.9616 12.8698 18.0944C13.4735 18.193 14.0935 18.2778 14.7255 18.2778C15.3575 18.2778 15.9774 18.193 16.5812 18.0944C17.394 17.9616 18.0481 17.0024 18.1351 15.81C18.1993 14.9297 18.2535 14.026 18.2535 13.1046C18.2535 12.1832 18.1993 11.2794 18.1351 10.3991Z" stroke="white" stroke-width="1.281" stroke-linecap="round" stroke-linejoin="round"/>
<path d="M0.895549 17.3856C0.982362 17.8167 1.63499 18.1635 2.44602 18.2115C3.04844 18.2473 3.66697 18.2779 4.29758 18.2779C4.92821 18.2779 5.54672 18.2473 6.14914 18.2115C6.96018 18.1635 7.6128 17.8167 7.69962 17.3856C7.7637 17.0673 7.81782 16.7404 7.81782 16.4072C7.81782 16.074 7.7637 15.7472 7.69962 15.4289C7.6128 14.9978 6.96018 14.651 6.14914 14.603C5.54672 14.5672 4.92821 14.5366 4.29758 14.5366C3.66697 14.5366 3.04844 14.5672 2.44602 14.603C1.63499 14.651 0.982362 14.9978 0.895548 15.4289C0.831461 15.7472 0.777344 16.074 0.777344 16.4072C0.777344 16.7404 0.831461 17.0673 0.895549 17.3856Z" stroke="white" stroke-width="1.281" stroke-linecap="round" stroke-linejoin="round"/>
<path d="M18.1351 1.66642C18.0481 1.23522 17.394 0.888417 16.5812 0.840377C15.9774 0.804694 15.3575 0.774048 14.7255 0.774048C14.0935 0.774048 13.4735 0.804694 12.8698 0.840376C12.0569 0.888415 11.4029 1.23522 11.3159 1.66642C11.2516 1.98474 11.1974 2.31154 11.1974 2.6447C11.1974 2.97789 11.2516 3.30469 11.3159 3.62301C11.4029 4.05419 12.0569 4.40101 12.8698 4.44905C13.4735 4.48473 14.0935 4.51538 14.7255 4.51538C15.3575 4.51538 15.9774 4.48473 16.5812 4.44905C17.394 4.40101 18.0481 4.05419 18.1351 3.62301C18.1993 3.30469 18.2535 2.97789 18.2535 2.6447C18.2535 2.31154 18.1993 1.98474 18.1351 1.66642Z" stroke="white" stroke-width="1.281" stroke-linecap="round" stroke-linejoin="round"/>
</svg>
