<svg width="21" height="21" viewBox="0 0 21 21" fill="none" xmlns="http://www.w3.org/2000/svg">
<path d="M5.56998 7.21334C5.56998 5.90582 6.08939 4.65186 7.01394 3.7273C7.9385 2.80275 9.19246 2.28334 10.5 2.28334C11.8075 2.28334 13.0615 2.80275 13.986 3.7273C14.9106 4.65186 15.43 5.90582 15.43 7.21334C15.43 12.965 17.895 14.6083 17.895 14.6083H3.10498C3.10498 14.6083 5.56998 12.965 5.56998 7.21334Z" stroke="white" stroke-width="1.28" stroke-linecap="round" stroke-linejoin="round"/>
<path d="M9.10315 17.895C9.24068 18.1452 9.44287 18.3538 9.68858 18.4991C9.93429 18.6444 10.2145 18.7211 10.5 18.7211C10.7854 18.7211 11.0657 18.6444 11.3114 18.4991C11.5571 18.3538 11.7593 18.1452 11.8968 17.895" stroke="white" stroke-width="1.28" stroke-linecap="round" stroke-linejoin="round"/>
</svg>
