<svg width="21" height="21" viewBox="0 0 21 21" fill="none" xmlns="http://www.w3.org/2000/svg">
<g clip-path="url(#clip0_533_449)">
<path d="M7.21338 5.57001C7.21338 6.44169 7.55965 7.27766 8.17602 7.89403C8.79239 8.5104 9.62837 8.85667 10.5 8.85667C11.3717 8.85667 12.2077 8.5104 12.8241 7.89403C13.4404 7.27766 13.7867 6.44169 13.7867 5.57001C13.7867 4.69833 13.4404 3.86235 12.8241 3.24598C12.2077 2.62961 11.3717 2.28334 10.5 2.28334C9.62837 2.28334 8.79239 2.62961 8.17602 3.24598C7.55965 3.86235 7.21338 4.69833 7.21338 5.57001Z" stroke="#7A231C" stroke-width="1.28"/>
<path d="M17.0733 15.0192C17.0733 17.0613 17.0733 18.7167 10.5 18.7167C3.92664 18.7167 3.92664 17.0613 3.92664 15.0192C3.92664 12.9771 6.86962 11.3217 10.5 11.3217C14.1303 11.3217 17.0733 12.9771 17.0733 15.0192Z" stroke="#7A231C" stroke-width="1.28"/>
</g>
<defs>
<clipPath id="clip0_533_449">
<rect width="21" height="21" fill="white"/>
</clipPath>
</defs>
</svg>
